<?xml version="1.0" encoding="UTF-8"?>
<svg version="1.1" xmlns="http://www.w3.org/2000/svg" width="512" height="512">
<path d="M0 0 C1.63157028 -0.00935994 1.63157028 -0.00935994 3.29610157 -0.01890898 C6.91792192 -0.0347834 10.53906408 -0.02225588 14.16088867 -0.00964355 C16.76679881 -0.0150671 19.37270589 -0.02219107 21.97860718 -0.03088379 C28.30800841 -0.04861945 34.63721932 -0.04485127 40.96662784 -0.03323323 C46.11315385 -0.02417957 51.25962674 -0.02298323 56.40615845 -0.02732849 C57.14016241 -0.02794142 57.87416637 -0.02855436 58.63041288 -0.02918586 C60.12178224 -0.03046483 61.61315159 -0.03176169 63.10452092 -0.03307623 C77.07119745 -0.04446751 91.03776876 -0.03139117 105.00442803 -0.00987476 C116.97427747 0.00799492 128.94397172 0.00489041 140.91381836 -0.0135498 C154.83237479 -0.03498224 168.75083912 -0.04336901 182.66940975 -0.03110075 C184.15512529 -0.02982663 185.64084083 -0.02856914 187.1265564 -0.02732849 C187.85745273 -0.02671139 188.58834906 -0.02609429 189.34139377 -0.02545848 C194.4784831 -0.02201269 199.61551375 -0.02781725 204.75259399 -0.0372467 C211.67364812 -0.04967217 218.59440504 -0.04075671 225.51543045 -0.01766968 C228.0526239 -0.01238914 230.58984204 -0.01388507 233.1270256 -0.02272034 C236.59591895 -0.03368467 240.06388052 -0.01989991 243.53271484 0 C244.53175748 -0.00892289 245.53080011 -0.01784577 246.56011677 -0.02703905 C255.18151059 0.06859757 263.50782129 2.24939844 269.76635742 8.50793457 C275.6769083 16.27608715 276.04244983 22.94547021 275.89135742 32.38293457 C275.88233398 33.45285645 275.87331055 34.52277832 275.86401367 35.62512207 C275.84055084 38.25295896 275.80772201 40.88032863 275.76635742 43.50793457 C276.31018066 43.6131543 276.85400391 43.71837402 277.41430664 43.82678223 C325.90503491 53.81962865 369.25298405 92.10129329 395.90649414 132.22424316 C426.6814822 179.57560448 436.74160259 237.79732066 425.51245117 292.93371582 C418.41720329 325.31932604 404.58388354 354.04856728 384.76635742 380.50793457 C388.94500464 385.49851634 393.3024605 390.17014962 397.93334961 394.74084473 C398.96860023 395.76908607 398.96860023 395.76908607 400.02476501 396.81809998 C401.51161884 398.2945151 402.99957016 399.76982564 404.48851776 401.24412918 C406.84501767 403.57848361 409.19742325 405.91689131 411.54864502 408.25656128 C418.22978114 414.90420708 424.91510089 421.54760039 431.6105957 428.18078613 C435.71526039 432.24782812 439.81259785 436.32212894 443.90531158 440.40119553 C445.46388171 441.95171219 447.02522432 443.49944713 448.58937836 445.0443306 C450.7721527 447.20065879 452.94550023 449.36608355 455.11694336 451.53381348 C456.08787178 452.48620659 456.08787178 452.48620659 457.07841492 453.45783997 C461.45988146 457.85915021 463.51886125 460.99172344 464.14135742 467.32043457 C463.88918893 475.54515452 458.57165654 481.34683565 452.95385742 486.82043457 C452.36282227 487.42693848 451.77178711 488.03344238 451.1628418 488.6583252 C446.77501288 493.00787426 442.7566097 495.79263451 436.54370117 496.90637207 C427.64375962 496.79299702 423.00130361 492.17569123 417.10864258 486.1907959 C416.36649506 485.44908646 415.62434753 484.70737701 414.85971069 483.94319153 C412.41776529 481.4991625 409.98660752 479.04469245 407.55541992 476.58996582 C405.86071237 474.88966083 404.16533959 473.19001865 402.46932983 471.49101257 C398.0141046 467.02435033 393.5679634 462.54875129 389.12365723 458.07122803 C384.58423058 453.50107614 380.0362661 448.93943822 375.48901367 444.3770752 C366.57308818 435.42900569 357.66644346 426.47175731 348.76635742 417.50793457 C347.03377861 418.59980662 345.30261095 419.69391804 343.57202148 420.78894043 C342.60782288 421.39797714 341.64362427 422.00701385 340.65020752 422.63450623 C337.99931179 424.356601 335.43080965 426.1516084 332.87573242 428.01184082 C327.19729586 432.02232054 321.18716241 435.26004424 315.01635742 438.44543457 C314.13563568 438.9000708 314.13563568 438.9000708 313.23712158 439.3638916 C261.78370613 465.7767721 201.95974576 469.35447232 147.08276367 451.72668457 C94.59194093 433.98304727 49.96254964 395.49219823 24.96948242 346.04309082 C10.76635742 317.29878535 10.76635742 317.29878535 10.76635742 308.50793457 C10.11675049 308.52888184 9.46714355 308.5498291 8.79785156 308.57141113 C5.80834909 308.6553904 2.81909584 308.70685057 -0.17114258 308.75793457 C-1.70351563 308.80820801 -1.70351563 308.80820801 -3.2668457 308.85949707 C-11.49337718 308.96462846 -17.03982925 307.08141093 -23.98364258 302.82043457 C-29.38797732 297.26597941 -32.35062095 290.61250948 -32.36786366 282.8894558 C-32.3723215 281.96107537 -32.37677934 281.03269494 -32.38137227 280.07618177 C-32.38118791 279.05966209 -32.38100355 278.0431424 -32.3808136 276.99581909 C-32.38449029 275.91323212 -32.38816697 274.83064515 -32.39195508 273.71525252 C-32.40299878 270.07501547 -32.40683694 266.43480696 -32.41064453 262.79455566 C-32.41690866 260.18953358 -32.42355541 257.58451239 -32.43055725 254.97949219 C-32.45030695 247.15309075 -32.46038609 239.32668805 -32.46928504 231.50026792 C-32.47367049 227.81264343 -32.47903664 224.12502037 -32.48427391 220.437397 C-32.50128489 208.17535132 -32.51577834 195.91330651 -32.52302265 183.65125084 C-32.52493248 180.47017796 -32.52685282 177.28910508 -32.52880859 174.10803223 C-32.52929233 173.31741381 -32.52977607 172.52679539 -32.53027447 171.71221884 C-32.53857214 158.9089951 -32.56390517 146.10586488 -32.59638927 133.30268197 C-32.62948388 120.15142085 -32.64747359 107.00020722 -32.65066689 93.84890425 C-32.6528298 86.46757369 -32.66154614 79.08637949 -32.68712807 71.70508957 C-32.71114457 64.75952836 -32.71464567 57.814216 -32.70436668 50.86862183 C-32.70387098 48.32174489 -32.71020137 45.77485592 -32.72392273 43.2280159 C-32.74163175 39.7457012 -32.73453923 36.26426753 -32.72138977 32.7819519 C-32.73235902 31.77881655 -32.74332826 30.7756812 -32.75462991 29.7421478 C-32.678991 21.42073352 -30.79489188 13.93171669 -25.10864258 7.63293457 C-17.87770237 1.10431088 -9.40431746 -0.08399407 0 0 Z " fill="#3B7AC7" transform="translate(40.233642578125,7.4920654296875)"/>
<path d="M0 0 C1.63157028 -0.00935994 1.63157028 -0.00935994 3.29610157 -0.01890898 C6.91792192 -0.0347834 10.53906408 -0.02225588 14.16088867 -0.00964355 C16.76679881 -0.0150671 19.37270589 -0.02219107 21.97860718 -0.03088379 C28.30800841 -0.04861945 34.63721932 -0.04485127 40.96662784 -0.03323323 C46.11315385 -0.02417957 51.25962674 -0.02298323 56.40615845 -0.02732849 C57.14016241 -0.02794142 57.87416637 -0.02855436 58.63041288 -0.02918586 C60.12178224 -0.03046483 61.61315159 -0.03176169 63.10452092 -0.03307623 C77.07119745 -0.04446751 91.03776876 -0.03139117 105.00442803 -0.00987476 C116.97427747 0.00799492 128.94397172 0.00489041 140.91381836 -0.0135498 C154.83237479 -0.03498224 168.75083912 -0.04336901 182.66940975 -0.03110075 C184.15512529 -0.02982663 185.64084083 -0.02856914 187.1265564 -0.02732849 C187.85745273 -0.02671139 188.58834906 -0.02609429 189.34139377 -0.02545848 C194.4784831 -0.02201269 199.61551375 -0.02781725 204.75259399 -0.0372467 C211.67364812 -0.04967217 218.59440504 -0.04075671 225.51543045 -0.01766968 C228.0526239 -0.01238914 230.58984204 -0.01388507 233.1270256 -0.02272034 C236.59591895 -0.03368467 240.06388052 -0.01989991 243.53271484 0 C244.53175748 -0.00892289 245.53080011 -0.01784577 246.56011677 -0.02703905 C255.18151059 0.06859757 263.50782129 2.24939844 269.76635742 8.50793457 C275.6769083 16.27608715 276.04244983 22.94547021 275.89135742 32.38293457 C275.88233398 33.45285645 275.87331055 34.52277832 275.86401367 35.62512207 C275.84055084 38.25295896 275.80772201 40.88032863 275.76635742 43.50793457 C276.31018066 43.6131543 276.85400391 43.71837402 277.41430664 43.82678223 C325.90503491 53.81962865 369.25298405 92.10129329 395.90649414 132.22424316 C426.6814822 179.57560448 436.74160259 237.79732066 425.51245117 292.93371582 C418.41720329 325.31932604 404.58388354 354.04856728 384.76635742 380.50793457 C388.94500464 385.49851634 393.3024605 390.17014962 397.93334961 394.74084473 C398.96860023 395.76908607 398.96860023 395.76908607 400.02476501 396.81809998 C401.51161884 398.2945151 402.99957016 399.76982564 404.48851776 401.24412918 C406.84501767 403.57848361 409.19742325 405.91689131 411.54864502 408.25656128 C418.22978114 414.90420708 424.91510089 421.54760039 431.6105957 428.18078613 C435.71526039 432.24782812 439.81259785 436.32212894 443.90531158 440.40119553 C445.46388171 441.95171219 447.02522432 443.49944713 448.58937836 445.0443306 C450.7721527 447.20065879 452.94550023 449.36608355 455.11694336 451.53381348 C456.08787178 452.48620659 456.08787178 452.48620659 457.07841492 453.45783997 C461.45988146 457.85915021 463.51886125 460.99172344 464.14135742 467.32043457 C463.88918893 475.54515452 458.57165654 481.34683565 452.95385742 486.82043457 C452.36282227 487.42693848 451.77178711 488.03344238 451.1628418 488.6583252 C446.77501288 493.00787426 442.7566097 495.79263451 436.54370117 496.90637207 C427.64375962 496.79299702 423.00130361 492.17569123 417.10864258 486.1907959 C416.36649506 485.44908646 415.62434753 484.70737701 414.85971069 483.94319153 C412.41776529 481.4991625 409.98660752 479.04469245 407.55541992 476.58996582 C405.86071237 474.88966083 404.16533959 473.19001865 402.46932983 471.49101257 C398.0141046 467.02435033 393.5679634 462.54875129 389.12365723 458.07122803 C384.58423058 453.50107614 380.0362661 448.93943822 375.48901367 444.3770752 C366.57308818 435.42900569 357.66644346 426.47175731 348.76635742 417.50793457 C347.03377861 418.59980662 345.30261095 419.69391804 343.57202148 420.78894043 C342.60782288 421.39797714 341.64362427 422.00701385 340.65020752 422.63450623 C337.99931179 424.356601 335.43080965 426.1516084 332.87573242 428.01184082 C327.19729586 432.02232054 321.18716241 435.26004424 315.01635742 438.44543457 C314.13563568 438.9000708 314.13563568 438.9000708 313.23712158 439.3638916 C261.78370613 465.7767721 201.95974576 469.35447232 147.08276367 451.72668457 C94.59194093 433.98304727 49.96254964 395.49219823 24.96948242 346.04309082 C10.76635742 317.29878535 10.76635742 317.29878535 10.76635742 308.50793457 C10.11675049 308.52888184 9.46714355 308.5498291 8.79785156 308.57141113 C5.80834909 308.6553904 2.81909584 308.70685057 -0.17114258 308.75793457 C-1.70351563 308.80820801 -1.70351563 308.80820801 -3.2668457 308.85949707 C-11.49337718 308.96462846 -17.03982925 307.08141093 -23.98364258 302.82043457 C-29.38797732 297.26597941 -32.35062095 290.61250948 -32.36786366 282.8894558 C-32.3723215 281.96107537 -32.37677934 281.03269494 -32.38137227 280.07618177 C-32.38118791 279.05966209 -32.38100355 278.0431424 -32.3808136 276.99581909 C-32.38449029 275.91323212 -32.38816697 274.83064515 -32.39195508 273.71525252 C-32.40299878 270.07501547 -32.40683694 266.43480696 -32.41064453 262.79455566 C-32.41690866 260.18953358 -32.42355541 257.58451239 -32.43055725 254.97949219 C-32.45030695 247.15309075 -32.46038609 239.32668805 -32.46928504 231.50026792 C-32.47367049 227.81264343 -32.47903664 224.12502037 -32.48427391 220.437397 C-32.50128489 208.17535132 -32.51577834 195.91330651 -32.52302265 183.65125084 C-32.52493248 180.47017796 -32.52685282 177.28910508 -32.52880859 174.10803223 C-32.52929233 173.31741381 -32.52977607 172.52679539 -32.53027447 171.71221884 C-32.53857214 158.9089951 -32.56390517 146.10586488 -32.59638927 133.30268197 C-32.62948388 120.15142085 -32.64747359 107.00020722 -32.65066689 93.84890425 C-32.6528298 86.46757369 -32.66154614 79.08637949 -32.68712807 71.70508957 C-32.71114457 64.75952836 -32.71464567 57.814216 -32.70436668 50.86862183 C-32.70387098 48.32174489 -32.71020137 45.77485592 -32.72392273 43.2280159 C-32.74163175 39.7457012 -32.73453923 36.26426753 -32.72138977 32.7819519 C-32.73235902 31.77881655 -32.74332826 30.7756812 -32.75462991 29.7421478 C-32.678991 21.42073352 -30.79489188 13.93171669 -25.10864258 7.63293457 C-17.87770237 1.10431088 -9.40431746 -0.08399407 0 0 Z M81.76635742 116.50793457 C81.11151367 117.10992676 80.45666992 117.71191895 79.78198242 118.33215332 C57.06140743 139.80850634 40.37193458 171.79909007 33.55541992 202.02746582 C32.76635742 205.50793457 32.76635742 205.50793457 31.76635742 208.73840332 C26.0484044 230.29240591 26.0774836 254.61824863 29.76635742 276.50793457 C29.88994629 277.29845215 30.01353516 278.08896973 30.14086914 278.90344238 C37.60277125 326.13502157 64.08573416 370.77872158 102.86962891 399.10778809 C128.51173245 417.3252589 155.77024656 429.04989634 186.76635742 434.50793457 C187.44537109 434.62942871 188.12438477 434.75092285 188.82397461 434.87609863 C223.93320619 440.91077928 261.75552643 434.6399353 293.76635742 419.50793457 C294.47228027 419.18035156 295.17820312 418.85276855 295.90551758 418.51525879 C340.36603454 397.75874389 374.38683079 360.27334696 391.76635742 314.50793457 C392.01224609 313.86146973 392.25813477 313.21500488 392.51147461 312.5489502 C409.34086871 267.36646847 407.88592774 216.46476943 387.85229492 172.5020752 C385.62259628 167.76623154 383.22253524 163.12944266 380.76635742 158.50793457 C380.16178711 157.34648926 379.5572168 156.18504395 378.93432617 154.98840332 C370.77084246 139.95040701 359.80419062 126.61216723 347.76635742 114.50793457 C347.27232422 114.00987305 346.77829102 113.51181152 346.26928711 112.99865723 C325.09834738 91.94404134 291.25362908 68.67097653 260.53979492 66.25402832 C259.62456055 66.33781738 258.70932617 66.42160645 257.76635742 66.50793457 C257.10635742 67.35355957 256.44635742 68.19918457 255.76635742 69.07043457 C252.07191579 72.07216839 250.96126248 71.73927342 246.32885742 71.38293457 C243.80672785 71.10269795 241.28590777 70.81048401 238.76635742 70.50793457 C236.14269393 70.2898787 233.5186388 70.11880847 230.89135742 69.94543457 C229.71831055 69.86164551 228.54526367 69.77785645 227.33666992 69.69152832 C226.4884668 69.63094238 225.64026367 69.57035645 224.76635742 69.50793457 C224.53948242 68.57980957 224.31260742 67.65168457 224.07885742 66.69543457 C223.02433528 63.4289925 223.02433528 63.4289925 220.53979492 61.65637207 C177.26942684 43.73878303 110.85902031 88.72682616 81.76635742 116.50793457 Z " fill="#D3E5E6" transform="translate(40.233642578125,7.4920654296875)"/>
<path d="M0 0 C0.96744141 0.01087646 1.93488281 0.02175293 2.93164062 0.03295898 C18.0143416 0.3689472 31.69485265 4.94535099 42.83222961 15.40678406 C43.34439665 15.88595486 43.85656369 16.36512567 44.38425094 16.8588168 C49.95419142 22.09723308 55.39190143 27.47124941 60.80932617 32.86645508 C61.91946827 33.96866566 63.02977933 35.07070609 64.14024353 36.17259216 C67.73643238 39.74294617 71.32752529 43.31840091 74.91796875 46.89453125 C76.1659198 48.13710958 77.41387324 49.37968553 78.66182899 50.62225914 C83.85523554 55.79410731 89.04722928 60.96736694 94.2355299 66.14433765 C101.61793355 73.51049858 109.00871821 80.86801554 116.41139621 88.21380311 C121.64860388 93.41215171 126.87604238 98.62019953 132.09649068 103.83537787 C135.20080977 106.93606988 138.30904404 110.03256371 141.42787743 113.11866188 C144.36199402 116.02240877 147.28366117 118.93815487 150.19678688 121.86295509 C151.25776604 122.92415248 152.32291193 123.98120594 153.39285278 125.03336716 C165.67503398 137.12272072 177.12484505 152.16485194 177.29296875 170.17578125 C177.30487294 172.0129938 177.3112179 173.85024933 177.3125 175.6875 C177.32474609 176.59951172 177.33699219 177.51152344 177.34960938 178.45117188 C177.38487291 194.84871498 169.96908749 209.46858332 159.09375 221.46484375 C152.45838145 227.9027311 144.60266873 231.89798379 136.125 235.375 C135.31675781 235.72949219 134.50851562 236.08398438 133.67578125 236.44921875 C120.42369833 241.25893338 102.79583243 239.52503212 90.12109375 234.0859375 C78.27984052 228.54322322 69.47609208 220.02862126 60.32226562 210.87866211 C59.16352586 209.72755931 58.00439079 208.57685433 56.84489441 207.42651367 C53.71809053 204.32150946 50.59774875 201.21009217 47.47927666 198.09672236 C45.52448232 196.14558875 43.5684002 194.19575543 41.6118927 192.2463398 C34.76860038 185.42749103 27.93100273 178.60298528 21.09814453 171.77368164 C14.75761031 165.43677917 8.40407172 159.11312365 2.04444551 152.79538721 C-3.43909177 147.34668976 -8.91282238 141.88826553 -14.3793149 136.42246825 C-17.63372268 133.16884858 -20.89187406 129.91922021 -24.16020203 126.67957878 C-27.23798833 123.62820907 -30.30326137 120.56477507 -33.35989952 117.49222565 C-34.474104 116.37622533 -35.59246995 115.2643592 -36.71560097 114.15734291 C-51.77933247 99.29640087 -61.01124968 83.5342243 -61.25 61.9375 C-61.30965098 44.32009194 -55.02045182 30.36961083 -43.03515625 17.4375 C-31.25912422 6.19383831 -16.23202714 -0.24917586 0 0 Z " fill="#E7BF43" transform="translate(197.875,136.625)"/>
<path d="M0 0 C1.63157028 -0.00935994 1.63157028 -0.00935994 3.29610157 -0.01890898 C6.91792192 -0.0347834 10.53906408 -0.02225588 14.16088867 -0.00964355 C16.76679881 -0.0150671 19.37270589 -0.02219107 21.97860718 -0.03088379 C28.30800841 -0.04861945 34.63721932 -0.04485127 40.96662784 -0.03323323 C46.11315385 -0.02417957 51.25962674 -0.02298323 56.40615845 -0.02732849 C57.14016241 -0.02794142 57.87416637 -0.02855436 58.63041288 -0.02918586 C60.12178224 -0.03046483 61.61315159 -0.03176169 63.10452092 -0.03307623 C77.07119745 -0.04446751 91.03776876 -0.03139117 105.00442803 -0.00987476 C116.97427747 0.00799492 128.94397172 0.00489041 140.91381836 -0.0135498 C154.83237479 -0.03498224 168.75083912 -0.04336901 182.66940975 -0.03110075 C184.15512529 -0.02982663 185.64084083 -0.02856914 187.1265564 -0.02732849 C187.85745273 -0.02671139 188.58834906 -0.02609429 189.34139377 -0.02545848 C194.4784831 -0.02201269 199.61551375 -0.02781725 204.75259399 -0.0372467 C211.67364812 -0.04967217 218.59440504 -0.04075671 225.51543045 -0.01766968 C228.0526239 -0.01238914 230.58984204 -0.01388507 233.1270256 -0.02272034 C236.59591895 -0.03368467 240.06388052 -0.01989991 243.53271484 0 C244.53175748 -0.00892289 245.53080011 -0.01784577 246.56011677 -0.02703905 C255.18151059 0.06859757 263.50782129 2.24939844 269.76635742 8.50793457 C275.6769083 16.27608715 276.04244983 22.94547021 275.89135742 32.38293457 C275.88233398 33.45285645 275.87331055 34.52277832 275.86401367 35.62512207 C275.84055084 38.25295896 275.80772201 40.88032863 275.76635742 43.50793457 C275.16702393 43.38748779 274.56769043 43.26704102 273.95019531 43.14294434 C267.70521591 41.89056528 261.45748893 40.65388798 255.20385742 39.44543457 C254.3227832 39.27205566 253.44170898 39.09867676 252.53393555 38.92004395 C241.31334424 36.75873448 230.41913785 36.30283653 219.01635742 36.32043457 C217.84685043 36.32183945 217.84685043 36.32183945 216.65371704 36.32327271 C169.69415772 36.44549267 125.40038623 49.83213176 87.76635742 78.50793457 C86.8872168 79.17437988 86.00807617 79.8408252 85.10229492 80.52746582 C78.31976293 85.81353441 72.01056672 91.60627926 65.76635742 97.50793457 C64.48051758 98.71256348 64.48051758 98.71256348 63.16870117 99.94152832 C33.67886725 128.40319054 15.0473693 167.82118513 6.76635742 207.50793457 C6.5884668 208.32246094 6.41057617 209.1369873 6.22729492 209.97619629 C-0.08077791 239.97083229 2.40149185 273.58890778 10.18701172 302.9876709 C10.76635742 305.50793457 10.76635742 305.50793457 10.76635742 308.50793457 C7.12080184 308.62548938 3.47574268 308.69563269 -0.17114258 308.75793457 C-1.70351563 308.80820801 -1.70351563 308.80820801 -3.2668457 308.85949707 C-11.49337718 308.96462846 -17.03982925 307.08141093 -23.98364258 302.82043457 C-29.38797732 297.26597941 -32.35062095 290.61250948 -32.36786366 282.8894558 C-32.3723215 281.96107537 -32.37677934 281.03269494 -32.38137227 280.07618177 C-32.38118791 279.05966209 -32.38100355 278.0431424 -32.3808136 276.99581909 C-32.38449029 275.91323212 -32.38816697 274.83064515 -32.39195508 273.71525252 C-32.40299878 270.07501547 -32.40683694 266.43480696 -32.41064453 262.79455566 C-32.41690866 260.18953358 -32.42355541 257.58451239 -32.43055725 254.97949219 C-32.45030695 247.15309075 -32.46038609 239.32668805 -32.46928504 231.50026792 C-32.47367049 227.81264343 -32.47903664 224.12502037 -32.48427391 220.437397 C-32.50128489 208.17535132 -32.51577834 195.91330651 -32.52302265 183.65125084 C-32.52493248 180.47017796 -32.52685282 177.28910508 -32.52880859 174.10803223 C-32.52929233 173.31741381 -32.52977607 172.52679539 -32.53027447 171.71221884 C-32.53857214 158.9089951 -32.56390517 146.10586488 -32.59638927 133.30268197 C-32.62948388 120.15142085 -32.64747359 107.00020722 -32.65066689 93.84890425 C-32.6528298 86.46757369 -32.66154614 79.08637949 -32.68712807 71.70508957 C-32.71114457 64.75952836 -32.71464567 57.814216 -32.70436668 50.86862183 C-32.70387098 48.32174489 -32.71020137 45.77485592 -32.72392273 43.2280159 C-32.74163175 39.7457012 -32.73453923 36.26426753 -32.72138977 32.7819519 C-32.73235902 31.77881655 -32.74332826 30.7756812 -32.75462991 29.7421478 C-32.678991 21.42073352 -30.79489188 13.93171669 -25.10864258 7.63293457 C-17.87770237 1.10431088 -9.40431746 -0.08399407 0 0 Z " fill="#BFD9DB" transform="translate(40.233642578125,7.4920654296875)"/>
<path d="M0 0 C1.58643982 3.17287965 1.96799489 6.62114991 1 10 C-2.27063406 13.64217809 -4.49152651 15.25289997 -9.3984375 15.63671875 C-11.05694508 15.674617 -12.71606221 15.69051625 -14.375 15.6875 C-16.17719777 15.73546039 -17.97928909 15.78759045 -19.78125 15.84375 C-20.66941406 15.86695312 -21.55757812 15.89015625 -22.47265625 15.9140625 C-42.28871711 16.58786982 -61.35593781 22.44839502 -79.08544922 31.07128906 C-80.79714089 31.90159703 -82.52462362 32.69916714 -84.25390625 33.4921875 C-96.95943922 39.48121369 -108.45641949 47.77436705 -119 57 C-119.52335937 57.45632812 -120.04671875 57.91265625 -120.5859375 58.3828125 C-128.15869288 65.03119399 -134.96718508 71.8858111 -141 80 C-141.41427246 80.55042969 -141.82854492 81.10085937 -142.25537109 81.66796875 C-155.44590752 99.36604502 -164.95129566 118.80126983 -171 140 C-171.33515625 141.14984375 -171.6703125 142.2996875 -172.015625 143.484375 C-175.48031864 156.32412201 -176.37878497 169.26758403 -176.3125 182.5 C-176.31100952 183.23923706 -176.30951904 183.97847412 -176.3079834 184.7401123 C-176.24466874 202.28772268 -174.72840321 219.29523708 -169 236 C-168.76829102 236.70125 -168.53658203 237.4025 -168.29785156 238.125 C-160.09125551 262.79759765 -147.18424863 284.4048079 -129 303 C-128.05619939 304.00418285 -127.11350742 305.00940873 -126.171875 306.015625 C-110.48035978 322.53495823 -90.74648464 333.96981958 -70 343 C-68.62328125 343.59941406 -68.62328125 343.59941406 -67.21875 344.2109375 C-61.20510655 346.58975216 -54.95898348 348.0950031 -48.6875 349.625 C-47.42534668 349.93473755 -47.42534668 349.93473755 -46.13769531 350.25073242 C-33.03202352 353.32245226 -20.21852323 354.38343996 -6.8125 354.3125 C-6.04076447 354.30968018 -5.26902893 354.30686035 -4.47390747 354.30395508 C7.24150051 354.23973201 18.60447204 353.92955931 30 351 C30.96599121 350.7525 31.93198242 350.505 32.92724609 350.25 C53.54811891 344.77560021 73.83215733 336.90721018 91 324 C92.03769531 323.24332031 93.07539063 322.48664063 94.14453125 321.70703125 C106.19570716 312.79339712 116.88292241 302.93661825 126 291 C126.73734375 290.07832031 127.4746875 289.15664063 128.234375 288.20703125 C153.12114642 256.41203534 165.05968537 215.10784822 163 175 C162.94416748 173.87513184 162.94416748 173.87513184 162.88720703 172.72753906 C160.50190991 131.88915546 141.98328225 95.91667713 115 66 C113.98679687 64.87658203 113.98679687 64.87658203 112.953125 63.73046875 C93.32039554 43.13288293 66.71163559 29.36879787 39.71337891 21.3815918 C33.53008723 19.48459467 33.53008723 19.48459467 30.90625 17.0859375 C29.26896881 13.31736786 29.95158413 9.87840558 31 6 C32.5 3.875 32.5 3.875 35 3 C41.03264239 3.14263016 46.64139645 4.54424614 52.3125 6.5 C53.07884766 6.76208252 53.84519531 7.02416504 54.63476562 7.29418945 C101.34818545 23.73546282 140.49413059 57.80995104 162.22363281 102.51757812 C167.58907916 114.0376332 171.85674872 125.6952501 175 138 C175.18401367 138.69544922 175.36802734 139.39089844 175.55761719 140.10742188 C188.29787134 188.53372824 178.95538313 238.73220381 154.36328125 281.87109375 C146.0925408 295.34859574 136.140101 307.7991023 125 319 C124.2567749 319.74926758 124.2567749 319.74926758 123.49853516 320.51367188 C105.63603021 338.27799946 84.27243302 351.26870714 60.83837891 360.26904297 C59.10253618 360.95923064 57.39911442 361.72939757 55.69921875 362.50390625 C13.5771846 379.53953358 -37.41497313 376.17869941 -78.84643555 359.1730957 C-126.4023577 338.86579367 -163.01380436 301.08701604 -182.4375 253.3125 C-186.23887312 243.66443386 -189.0956219 234.1803191 -191 224 C-191.28467378 222.5972929 -191.57115898 221.19495231 -191.859375 219.79296875 C-201.2863495 172.69065919 -191.20559544 122.9377765 -165.0625 82.75 C-157.46405273 71.75777983 -149.200206 61.67311378 -140 52 C-139.41992188 51.36707031 -138.83984375 50.73414063 -138.2421875 50.08203125 C-111.98766094 22.3102833 -73.32071735 4.79240996 -36 -1 C-35.33613281 -1.10441406 -34.67226562 -1.20882812 -33.98828125 -1.31640625 C-7.1998982 -5.40979554 -7.1998982 -5.40979554 0 0 Z " fill="#31659E" transform="translate(263,71)"/>
<path d="M0 0 C5.01482734 4.20642848 9.74133478 8.58822868 14.37231445 13.21118164 C15.07238113 13.90628342 15.77244781 14.60138519 16.49372864 15.31755066 C18.78633705 17.5956668 21.07513507 19.87755876 23.36328125 22.16015625 C24.14870993 22.94275755 24.9341386 23.72535885 25.74336815 24.53167534 C29.89159941 28.66497424 34.03699078 32.80109584 38.17993164 36.93969727 C42.45825357 41.21251233 46.74578917 45.4759563 51.0355196 49.73731327 C54.33732728 53.02051643 57.63242657 56.31038964 60.92571068 59.60214043 C62.50409089 61.17749373 64.08497219 62.75034527 65.66839027 64.32063484 C67.87760821 66.51282265 70.07719484 68.71425105 72.2746582 70.91821289 C72.92972351 71.56406342 73.58478882 72.20991394 74.25970459 72.87533569 C78.65403282 77.31055721 80.74917625 80.44995854 81.375 86.8125 C81.12283151 95.03721995 75.80529911 100.83890108 70.1875 106.3125 C69.30094727 107.22225586 69.30094727 107.22225586 68.39648438 108.15039062 C64.00865546 112.49993969 59.99025228 115.28469994 53.77734375 116.3984375 C44.82885137 116.28444397 40.17467421 111.60673667 34.25048828 105.59106445 C33.12263664 104.46386993 33.12263664 104.46386993 31.97200012 103.31390381 C29.49759013 100.83740996 27.03396588 98.3504723 24.5703125 95.86328125 C22.85318465 94.14055605 21.13539164 92.4184936 19.41696167 90.69706726 C14.90255346 86.17122138 10.39722827 81.63643777 5.89373779 77.09973145 C1.29398722 72.46925706 -3.31429976 67.84729552 -7.921875 63.22460938 C-16.95628908 54.15805012 -25.98142318 45.08231144 -35 36 C-31.52027687 32.49983582 -27.9742291 29.12223378 -24.3125 25.8125 C-15.48104857 17.75250344 -7.26150427 9.5332598 0 0 Z " fill="#8F5C4A" transform="translate(423,388)"/>
<path d="M0 0 C6.43323283 3.62061116 11.34954104 8.83988323 14.15014648 15.73339844 C15.52644342 20.9338627 15.30404981 26.34416369 15.3125 31.6875 C15.34923828 32.89083984 15.38597656 34.09417969 15.42382812 35.33398438 C15.46634713 44.0787262 13.70099577 50.71819462 8.75 58 C2.89239063 63.80545022 -3.34300445 66.27473371 -11.625 66.375 C-18.63722049 66.23156822 -23.08037063 65.00954708 -28.18359375 60.1640625 C-33.54150975 54.34944264 -36.62512952 49.22290007 -36.6484375 41.1328125 C-36.65230469 39.83472656 -36.65617188 38.53664062 -36.66015625 37.19921875 C-36.65387207 36.52938965 -36.64758789 35.85956055 -36.64111328 35.16943359 C-36.62509463 33.13700647 -36.64096907 31.10658348 -36.66015625 29.07421875 C-36.63320274 20.00885398 -36.18083241 12.45406909 -29.84375 5.3828125 C-21.41471346 -1.93061627 -10.37223561 -4.73342452 0 0 Z " fill="#FEFEFC" transform="translate(207.25,164)"/>
<path d="M0 0 C5.11999652 0.91428509 7.54600627 3.35154915 10.62817383 7.46582031 C11.65720825 9.06828613 11.65720825 9.06828613 12.70703125 10.703125 C13.07728928 11.27456238 13.4475473 11.84599976 13.82902527 12.43475342 C14.99819757 14.24315078 16.15545844 16.05882311 17.3125 17.875 C18.10794582 19.10987659 18.90416249 20.34425699 19.70117188 21.578125 C21.64305965 24.58806525 23.57434645 27.60464081 25.5 30.625 C25.50410889 29.85833008 25.50821777 29.09166016 25.51245117 28.30175781 C25.54536135 24.82538955 25.61600453 21.35077979 25.6875 17.875 C25.69330078 16.6684375 25.69910156 15.461875 25.70507812 14.21875 C25.73408203 13.05859375 25.76308594 11.8984375 25.79296875 10.703125 C25.81653442 9.10065918 25.81653442 9.10065918 25.84057617 7.46582031 C26.71827424 3.68466713 28.26387331 2.64671986 31.5 0.625 C35.46178018 -0.0352967 36.95174139 0.25949426 40.3125 2.5 C42.69618924 4.81558384 43.43995806 5.67326206 43.64717102 8.95783997 C43.66193733 10.42080757 43.66193733 10.42080757 43.67700195 11.91333008 C43.69625481 13.57063896 43.69625481 13.57063896 43.71589661 15.26142883 C43.72328354 16.46035263 43.73067047 17.65927643 43.73828125 18.89453125 C43.746353 20.1228215 43.75442474 21.35111176 43.76274109 22.61662292 C43.77659134 25.2200682 43.78730927 27.8235317 43.79516602 30.42700195 C43.80839491 34.41059721 43.85626517 38.3935828 43.90039062 42.37695312 C43.91051672 44.90363972 43.91903308 47.43033338 43.92578125 49.95703125 C43.94328934 51.14988235 43.96079742 52.34273346 43.97883606 53.57173157 C43.95710549 61.84875988 43.95710549 61.84875988 41.59838867 65.85424805 C39.07817663 67.98096101 37.98071774 68.57158692 34.6875 68.9375 C30.65728341 68.54238073 29.45903487 67.34930713 26.5 64.625 C24.37182617 61.78417969 24.37182617 61.78417969 22.29296875 58.546875 C21.92271072 57.97543762 21.5524527 57.40400024 21.17097473 56.81524658 C20.00180243 55.00684922 18.84454156 53.19117689 17.6875 51.375 C16.89205418 50.14012341 16.09583751 48.90574301 15.29882812 47.671875 C13.35694035 44.66193475 11.42565355 41.64535919 9.5 38.625 C9.49383667 39.72171021 9.49383667 39.72171021 9.48754883 40.84057617 C9.45457791 44.16536307 9.38392853 47.48832616 9.3125 50.8125 C9.30669922 51.96298828 9.30089844 53.11347656 9.29492188 54.29882812 C9.04620974 63.8327932 9.04620974 63.8327932 6.16796875 66.8828125 C2.58412588 69.22306714 0.6967642 69.4493644 -3.5 68.625 C-6.74460355 65.89344975 -8.22958004 64.16696914 -8.96759033 59.95874023 C-9.16275382 56.62920731 -9.19278746 53.33518219 -9.1640625 50 C-9.16884613 48.77974121 -9.17362976 47.55948242 -9.17855835 46.30224609 C-9.18195501 43.72687488 -9.17276923 41.15146041 -9.15185547 38.57617188 C-9.12509069 34.63834318 -9.1516156 30.70336522 -9.18359375 26.765625 C-9.18028962 24.26041039 -9.17388332 21.75519754 -9.1640625 19.25 C-9.17418365 18.0748584 -9.18430481 16.8997168 -9.19473267 15.68896484 C-9.06452569 6.59028469 -9.06452569 6.59028469 -6.17724609 2.875 C-3.5 0.625 -3.5 0.625 0 0 Z " fill="#FEFDFA" transform="translate(238.5,221.375)"/>
<path d="M0 0 C0.76295844 -0.0034177 1.52591688 -0.0068354 2.31199527 -0.01035666 C4.87038585 -0.01694914 7.42772892 0.00506219 9.98602295 0.0269165 C11.81910172 0.02804469 13.65218229 0.02741169 15.48526001 0.02514648 C20.46436109 0.02399728 25.44307792 0.04754001 30.42208958 0.07544231 C35.62443158 0.10042159 40.82678208 0.10279523 46.0291748 0.10754395 C55.8818488 0.11998393 65.73434558 0.15281943 75.58694148 0.1929419 C86.80324081 0.23762775 98.01954854 0.25963864 109.23591471 0.27972364 C132.30994232 0.32155112 155.38381256 0.39192311 178.45770264 0.48101807 C178.45770264 0.81101807 178.45770264 1.14101807 178.45770264 1.48101807 C177.87617432 1.57076904 177.294646 1.66052002 176.69549561 1.75299072 C165.66239231 3.48642487 154.74756973 5.4461108 143.95770264 8.35601807 C143.12480713 8.57596436 142.29191162 8.79591064 141.43377686 9.02252197 C137.65891816 10.07742406 134.13507102 11.13065587 130.64009094 12.93840027 C118.29610331 19.03300695 105.60593569 18.35007363 92.0951755 18.25403953 C88.67873755 18.23488886 85.26236831 18.24631621 81.84590149 18.25294495 C76.12280486 18.25924639 70.40018214 18.24120497 64.67718506 18.20831299 C58.07327802 18.17067068 51.47026093 18.17267894 44.86630577 18.19535416 C38.48191152 18.21632395 32.09784447 18.20902806 25.71345711 18.18903542 C23.00817501 18.1810777 20.30317186 18.18300583 17.59789848 18.19305992 C13.82590303 18.2010463 10.05546062 18.17682657 6.28363037 18.14385986 C5.16927612 18.15240997 4.05492187 18.16096008 2.90679932 18.16976929 C-5.52264943 18.04254679 -5.52264943 18.04254679 -9.23600769 15.07069397 C-12.33148213 11.59486191 -12.33148213 11.59486191 -12.16729736 8.41851807 C-10.97174414 0.88653273 -6.98405858 -0.11427864 0 0 Z " fill="#6F919A" transform="translate(54.54229736328125,42.51898193359375)"/>
<path d="M0 0 C1.07030457 -0.00717545 1.07030457 -0.00717545 2.16223145 -0.01449585 C3.66498022 -0.0178856 5.16780366 -0.00874758 6.67041016 0.01220703 C8.96294475 0.03899467 11.25058534 0.01243719 13.54296875 -0.01953125 C15.00782324 -0.01622698 16.4726747 -0.00982036 17.9375 0 C18.95801453 -0.01518173 18.95801453 -0.01518173 19.99914551 -0.03067017 C23.80601246 0.06247202 25.39563339 0.60535244 28.40039062 3.01806641 C30.46875 5.6640625 30.46875 5.6640625 31.09375 8.6640625 C30.26805566 12.62739533 28.53433569 14.10940776 25.46875 16.6640625 C23.12022472 17.83832514 21.73100935 17.77914423 19.1171875 17.76171875 C18.26640625 17.75849609 17.415625 17.75527344 16.5390625 17.75195312 C15.20488281 17.73938477 15.20488281 17.73938477 13.84375 17.7265625 C12.9465625 17.72205078 12.049375 17.71753906 11.125 17.71289062 C8.90618352 17.70108841 6.68749982 17.68462405 4.46875 17.6640625 C4.46875 20.3040625 4.46875 22.9440625 4.46875 25.6640625 C5.21640625 25.64085937 5.9640625 25.61765625 6.734375 25.59375 C7.71921875 25.57570313 8.7040625 25.55765625 9.71875 25.5390625 C10.69328125 25.51585937 11.6678125 25.49265625 12.671875 25.46875 C15.55045091 25.66976787 17.08659582 26.07244621 19.46875 27.6640625 C21.96906654 31.41453732 22.00478554 33.22262516 21.46875 37.6640625 C19.71875 40.6015625 19.71875 40.6015625 16.46875 42.6640625 C12.43361476 43.073348 8.50931058 42.95405489 4.46875 42.6640625 C4.46875 45.6340625 4.46875 48.6040625 4.46875 51.6640625 C6.65564453 51.55964844 6.65564453 51.55964844 8.88671875 51.453125 C10.80984969 51.39683824 12.73303055 51.34223907 14.65625 51.2890625 C15.61595703 51.23878906 16.57566406 51.18851562 17.56445312 51.13671875 C24.49726872 50.99278486 24.49726872 50.99278486 27.25585938 52.89892578 C29.77631951 55.75004034 30.46216999 57.47324215 30.59375 61.2890625 C29.23450971 65.36678337 28.06514814 66.38300236 24.46875 68.6640625 C21.13476562 69.18164062 21.13476562 69.18164062 17.375 69.1953125 C16.70585571 69.1991394 16.03671143 69.20296631 15.34729004 69.20690918 C13.93870531 69.20961973 12.53006952 69.20231842 11.12158203 69.18554688 C8.97443661 69.16411925 6.83063603 69.18537162 4.68359375 69.2109375 C3.3098885 69.20829406 1.93618533 69.20316875 0.5625 69.1953125 C-1.29858398 69.18854492 -1.29858398 69.18854492 -3.19726562 69.18164062 C-7.09908167 68.57591054 -8.74921762 67.41019769 -11.53125 64.6640625 C-12.82254734 62.08146783 -12.68666859 60.17600508 -12.72412109 57.28393555 C-12.74018402 56.15904221 -12.75624695 55.03414886 -12.77279663 53.87516785 C-12.81716476 48.72840159 -12.85875102 43.58172449 -12.88134766 38.43481445 C-12.89468211 35.71767471 -12.92252382 33.0012869 -12.96337891 30.28442383 C-13.02219168 26.3732302 -13.04000963 22.46240198 -13.0546875 18.55078125 C-13.07735687 17.33605637 -13.10002625 16.12133148 -13.12338257 14.86979675 C-13.10252524 6.56832235 -13.10252524 6.56832235 -10.46923828 2.40014648 C-6.90398907 0.29340832 -4.0369268 -0.06005553 0 0 Z " fill="#FEFEFC" transform="translate(302.53125,281.3359375)"/>
<path d="M0 0 C0.77140823 -0.00073013 1.54281647 -0.00146027 2.33760071 -0.00221252 C4.87049319 0.00125251 7.40151354 0.04005884 9.93408203 0.0793457 C11.69669592 0.08867777 13.45932282 0.09579202 15.22195435 0.1007843 C19.84843102 0.11982328 24.47411576 0.16889684 29.10028076 0.2243042 C33.82602222 0.27556393 38.55189236 0.29831266 43.27783203 0.32348633 C52.54119973 0.377019 61.80398113 0.46229383 71.06689453 0.56762695 C67.66655873 4.0079415 64.217212 7.16613278 60.44189453 10.19262695 C56.87868145 12.9451729 56.87868145 12.9451729 53.7822113 16.17175293 C51.26646018 18.21899674 49.31022257 17.96257319 46.09838867 17.98754883 C44.87023941 18.00346069 43.64209015 18.01937256 42.37672424 18.0357666 C41.03516701 18.03703384 39.69360836 18.03721074 38.35205078 18.03637695 C36.97586251 18.04347799 35.59967721 18.0511769 34.22349548 18.05944824 C31.33926158 18.07289603 28.4553014 18.07446073 25.57104492 18.06860352 C21.87729769 18.06270767 18.18486504 18.09328979 14.49137211 18.1337204 C11.64913373 18.15958866 8.80721223 18.16247572 5.96487236 18.15882874 C4.60330336 18.16052095 3.24171989 18.17017349 1.88026619 18.18797302 C-0.02476272 18.21013779 -1.93010163 18.19725893 -3.83520508 18.18286133 C-5.4604435 18.18594299 -5.4604435 18.18594299 -7.11851501 18.18908691 C-9.93310547 17.56762695 -9.93310547 17.56762695 -12.27516174 15.2479248 C-14.48813188 11.67034915 -14.67134295 9.70175685 -13.93310547 5.56762695 C-9.56047139 0.95423749 -6.37274966 -0.15974495 0 0 Z " fill="#70919A" transform="translate(56.93310546875,84.432373046875)"/>
<path d="M0 0 C0.81417892 0.00707474 1.62835785 0.01414948 2.46720886 0.0214386 C5.05591518 0.04932527 7.64242148 0.11204809 10.23046875 0.17578125 C11.99020303 0.20087175 13.74997138 0.22368361 15.50976562 0.24414062 C19.81334171 0.29913253 24.11528285 0.38536133 28.41796875 0.48828125 C26.68986578 3.21635392 24.95591769 5.93839127 23.19165039 8.64331055 C21.29397609 11.54274492 21.29397609 11.54274492 19.7890625 15.1328125 C16.25343465 18.64514132 12.91300182 18.24604143 8.06835938 18.25976562 C6.88435547 18.23205078 5.70035156 18.20433594 4.48046875 18.17578125 C3.30033203 18.19060547 2.12019531 18.20542969 0.90429688 18.22070312 C-8.70265049 18.12827635 -8.70265049 18.12827635 -11.859375 15.1640625 C-14.15649676 11.59597088 -14.32609513 9.65503896 -13.58203125 5.48828125 C-9.53081848 0.0502825 -6.31299394 -0.20792719 0 0 Z " fill="#6E9099" transform="translate(56.58203125,127.51171875)"/>
<path d="M0 0 C2.62201336 2.21755385 3.85218241 3.97792325 4.34814453 7.40722656 C4.46677938 10.30273849 4.44671566 13.16556474 4.375 16.0625 C4.37371094 17.05572266 4.37242187 18.04894531 4.37109375 19.07226562 C4.26921275 27.47744853 4.26921275 27.47744853 2 31 C-1.75047482 33.50031654 -3.55856266 33.53603554 -8 33 C-10.69140625 31.2265625 -10.69140625 31.2265625 -13 28 C-13.71908951 23.96649949 -13.65233266 20.02367212 -13.5625 15.9375 C-13.57345703 14.84888672 -13.58441406 13.76027344 -13.59570312 12.63867188 C-13.52170659 4.62238096 -13.52170659 4.62238096 -11.08959961 1.72094727 C-7.17633507 -1.50192944 -4.91818765 -1.18714874 0 0 Z " fill="#E8C145" transform="translate(201,180)"/>
</svg>
