<?xml version="1.0" encoding="UTF-8" standalone="no"?>
<svg
   version="1.1"
   width="256"
   height="256"
   id="svg9"
   xmlns="http://www.w3.org/2000/svg"
   xmlns:svg="http://www.w3.org/2000/svg">
  <defs
     id="defs9" />
  <path
     d="m 127.81317,0.00189577 c 0.50833,0.001076 1.01666,0.002152 1.54039,0.003261 7.29554,0.0248042 14.45279,0.15009543 21.61858,1.65091423 0.48683,0.099214 0.97365,0.1984279 1.47523,0.3006484 24.16117,5.0539725 46.12826,15.9985056 63.94416,33.1573926 0.49391,0.473499 0.49391,0.473499 0.9978,0.956564 4.73829,4.566497 9.10286,9.209358 12.98498,14.524023 0.4285,0.574804 0.85701,1.149603 1.28552,1.724402 3.01536,4.09046 5.69136,8.341994 8.20279,12.757436 0.18201,0.315505 0.36403,0.631009 0.55156,0.956076 10.78964,18.8505 15.66694,40.207007 15.5848,61.777757 -10e-4,0.50832 -0.002,1.01663 -0.003,1.54035 -0.0248,7.29539 -0.1501,14.45247 -1.65095,21.61811 -0.14882,0.73022 -0.14882,0.73022 -0.30065,1.4752 -6.22238,29.74555 -22.14787,57.88718 -46.64151,76.4271 -0.26908,0.20736 -0.53817,0.41472 -0.8154,0.62836 -15.91532,12.23508 -34.1694,20.47089 -53.83601,24.49638 -0.35901,0.0736 -0.71801,0.14717 -1.0879,0.22299 -7.81351,1.48507 -15.54071,1.80472 -23.47559,1.77451 -0.76249,-0.001 -0.76249,-0.001 -1.54038,-0.003 -7.29555,-0.0248 -14.45279,-0.15009 -21.61858,-1.65091 -0.73025,-0.14883 -0.73025,-0.14883 -1.47524,-0.30065 -21.608495,-4.51972 -41.684448,-13.70041 -58.451193,-28.16342 -0.372081,-0.31671 -0.744162,-0.63343 -1.127517,-0.95974 -6.744184,-5.89817 -13.072082,-12.26548 -18.348487,-19.51458 -0.427718,-0.57426 -0.855578,-1.14841 -1.283575,-1.72245 -3.016298,-4.08994 -5.704653,-8.33684 -8.204734,-12.75939 -0.200846,-0.35317 -0.401693,-0.70633 -0.608625,-1.0702 -6.5046976,-11.5532 -10.8737347,-24.12302 -13.5302044,-37.10068 -0.073587,-0.359 -0.1471746,-0.718 -0.2229918,-1.08788 -1.48509906,-7.81334 -1.80476157,-15.54036 -1.77454699,-23.47507 0.001076,-0.50832 0.002153,-1.01663 0.003261,-1.54035 0.0248048,-7.29539 0.15009873,-14.45247 1.65095049,-21.61811 0.099216,-0.48681 0.1984322,-0.97363 0.3006549,-1.4752 C 7.010846,79.390596 17.955618,57.423994 35.114883,39.608476 c 0.315673,-0.329265 0.631346,-0.65853 0.956585,-0.997772 4.566597,-4.738186 9.209559,-9.102663 14.52434,-12.984693 0.574817,-0.428494 1.14963,-0.856993 1.724438,-1.285497 4.089779,-3.014997 8.335858,-5.703025 12.757719,-8.202604 0.353171,-0.200842 0.706342,-0.401684 1.070214,-0.608612 C 77.70164,9.0247435 90.271736,4.6558022 103.24969,1.9993908 c 0.359,-0.073586 0.71801,-0.1471714 1.08789,-0.222987 7.81352,-1.48506645 15.54071,-1.80472195 23.47559,-1.77450803 z"
     fill="#a79ba6"
     id="path1"
     style="stroke-width:0.49938" />
  <path
     d="m 127.81317,0.00189577 c 0.50833,0.001076 1.01666,0.002152 1.54039,0.003261 7.29554,0.0248042 14.45279,0.15009543 21.61858,1.65091423 0.48683,0.099214 0.97365,0.1984279 1.47523,0.3006484 24.16117,5.0539725 46.12826,15.9985056 63.94416,33.1573926 0.49391,0.473499 0.49391,0.473499 0.9978,0.956564 4.73829,4.566497 9.10286,9.209358 12.98498,14.524023 0.4285,0.574804 0.85701,1.149603 1.28552,1.724402 3.01536,4.09046 5.69136,8.341994 8.20279,12.757436 0.18201,0.315505 0.36403,0.631009 0.55156,0.956076 10.78964,18.8505 15.66694,40.207007 15.5848,61.777757 -10e-4,0.50832 -0.002,1.01663 -0.003,1.54035 -0.0248,7.29539 -0.1501,14.45247 -1.65095,21.61811 -0.14882,0.73022 -0.14882,0.73022 -0.30065,1.4752 -6.22238,29.74555 -22.14787,57.88718 -46.64151,76.4271 -0.26908,0.20736 -0.53817,0.41472 -0.8154,0.62836 -15.91532,12.23508 -34.1694,20.47089 -53.83601,24.49638 -0.35901,0.0736 -0.71801,0.14717 -1.0879,0.22299 -7.81351,1.48507 -15.54071,1.80472 -23.47559,1.77451 -0.76249,-0.001 -0.76249,-0.001 -1.54038,-0.003 -7.29555,-0.0248 -14.45279,-0.15009 -21.61858,-1.65091 -0.73025,-0.14883 -0.73025,-0.14883 -1.47524,-0.30065 -21.608495,-4.51972 -41.684448,-13.70041 -58.451193,-28.16342 -0.372081,-0.31671 -0.744162,-0.63343 -1.127517,-0.95974 -6.744184,-5.89817 -13.072082,-12.26548 -18.348487,-19.51458 -0.427718,-0.57426 -0.855578,-1.14841 -1.283575,-1.72245 -3.016298,-4.08994 -5.704653,-8.33684 -8.204734,-12.75939 -0.200846,-0.35317 -0.401693,-0.70633 -0.608625,-1.0702 -6.5046976,-11.5532 -10.8737347,-24.12302 -13.5302044,-37.10068 -0.073587,-0.359 -0.1471746,-0.718 -0.2229918,-1.08788 -1.48509906,-7.81334 -1.80476157,-15.54036 -1.77454699,-23.47507 0.001076,-0.50832 0.002153,-1.01663 0.003261,-1.54035 0.0248048,-7.29539 0.15009873,-14.45247 1.65095049,-21.61811 0.099216,-0.48681 0.1984322,-0.97363 0.3006549,-1.4752 C 7.010846,79.390596 17.955618,57.423994 35.114883,39.608476 c 0.315673,-0.329265 0.631346,-0.65853 0.956585,-0.997772 4.566597,-4.738186 9.209559,-9.102663 14.52434,-12.984693 0.574817,-0.428494 1.14963,-0.856993 1.724438,-1.285497 4.089779,-3.014997 8.335858,-5.703025 12.757719,-8.202604 0.353171,-0.200842 0.706342,-0.401684 1.070214,-0.608612 C 77.70164,9.0247435 90.271736,4.6558022 103.24969,1.9993908 c 0.359,-0.073586 0.71801,-0.1471714 1.08789,-0.222987 7.81352,-1.48506645 15.54071,-1.80472195 23.47559,-1.77450803 z M 50.595808,50.594699 c -0.28075,0.267145 -0.5615,0.534289 -0.850758,0.809529 -17.166813,16.413067 -28.263817,38.614295 -31.609247,62.111572 -0.05078,0.35413 -0.10155,0.70825 -0.153864,1.07311 -0.535044,4.42428 -0.466808,8.89663 -0.470367,13.3463 -5.03e-4,0.43537 -0.001,0.87074 -0.0015,1.3193 0.005,6.36306 0.24506,12.48535 1.624524,18.71807 0.140796,0.70283 0.281247,1.40573 0.421356,2.10869 4.015361,19.2142 13.507194,37.51889 27.274256,51.5362 0.809117,0.82756 1.603558,1.66782 2.398169,2.5093 4.249715,4.44059 8.861711,8.18329 13.852073,11.76064 0.304086,0.2212 0.608172,0.4424 0.921472,0.67031 11.070556,7.99334 23.738891,13.44051 36.992018,16.56272 0.91729,0.21645 1.83161,0.44536 2.7454,0.67615 13.40692,3.18428 27.31506,3.51653 40.89687,1.44156 0.33551,-0.0511 0.67102,-0.10212 1.0167,-0.15471 7.12515,-1.10998 14.03534,-2.73624 20.76896,-5.3384 0.51153,-0.19578 1.02306,-0.39155 1.55009,-0.59326 25.00407,-9.70467 46.0151,-27.80343 58.40727,-51.71614 0.18322,-0.34818 0.36645,-0.69635 0.55522,-1.05508 5.00388,-9.61496 8.62409,-20.20912 10.43124,-30.90484 0.11137,-0.6315 0.22274,-1.26299 0.33748,-1.91362 1.71549,-11.25853 1.51737,-23.90589 -0.83686,-35.04004 -0.14114,-0.74178 -0.28159,-1.48369 -0.42136,-2.22573 C 230.88047,78.037518 213.13491,53.830391 189.52449,37.841892 149.52657,11.251181 93.328918,13.704819 50.595808,50.594699 Z"
     fill="#eeecee"
     id="path2"
     style="stroke-width:0.49938" />
  <path
     d="m 126.50326,0.02774226 c 1.49533,0.005358 2.99037,1.698e-5 4.48569,-0.00634 4.47753,-0.003504 8.91386,0.0769418 13.36634,0.58130225 0.34818,0.0386938 0.69636,0.0773877 1.0551,0.11725405 1.70264,0.2205633 2.60523,0.46326424 4.06359,1.43548624 -0.42655,0.1000991 -0.85311,0.2001981 -1.29259,0.3033305 -16.90662,4.0024987 -34.71555,9.2850177 -48.64588,20.1709937 0,0.329586 0,0.659173 0,0.998747 -0.599321,0.16415 -1.198641,0.328299 -1.816122,0.497423 -17.869282,5.040408 -33.737822,14.131708 -47.12358,26.968133 -0.2653,0.251695 -0.530601,0.503394 -0.803941,0.762714 -16.984099,16.181707 -27.860912,38.51055 -31.15668,61.659014 -0.05078,0.35413 -0.101549,0.70825 -0.153863,1.07311 -0.535045,4.42428 -0.466808,8.89663 -0.470368,13.3463 -5.02e-4,0.43537 -0.001,0.87074 -0.0015,1.3193 0.005,6.36306 0.245061,12.48535 1.624525,18.71807 0.140796,0.70283 0.281246,1.40573 0.421356,2.10869 4.018923,19.23125 13.521692,37.53 27.297909,51.55985 0.764471,0.78245 1.514088,1.57743 2.263324,2.37446 4.108808,4.30937 8.635932,7.90088 13.46388,11.37246 0.457215,0.33289 0.457215,0.33289 0.923667,0.6725 10.748881,7.76025 23.136087,13.29553 36.030803,16.30621 0,0.49438 0,0.98876 0,1.49812 0.96294,0.79015 0.96294,0.79015 2.25308,1.50007 0.48675,0.28509 0.97349,0.57018 1.47499,0.86391 0.79651,0.45201 0.79651,0.45201 1.6091,0.91316 0.54388,0.31164 1.08776,0.62328 1.64812,0.94437 11.44576,6.47875 23.12291,11.14094 35.93058,14.14218 1.88132,0.44212 3.70455,0.95341 5.52444,1.61126 -0.16479,0.32959 -0.32959,0.65917 -0.49938,0.99875 -1.20362,0.24774 -2.35152,0.42052 -3.56982,0.55204 -0.37584,0.0419 -0.75168,0.0838 -1.1389,0.12693 -5.01591,0.50654 -10.04296,0.495 -15.0794,0.47583 -0.76249,-0.001 -0.76249,-0.001 -1.54038,-0.003 -7.29555,-0.0248 -14.45279,-0.15009 -21.61858,-1.65091 -0.73025,-0.14883 -0.73025,-0.14883 -1.47524,-0.30065 -21.608255,-4.51972 -41.684208,-13.70041 -58.450953,-28.16342 -0.372081,-0.31671 -0.744162,-0.63343 -1.127517,-0.95973 -6.744184,-5.89818 -13.072082,-12.26549 -18.348487,-19.51459 -0.427718,-0.57426 -0.855578,-1.14841 -1.283575,-1.72245 -3.016298,-4.08994 -5.704653,-8.33684 -8.204734,-12.75939 -0.200846,-0.35317 -0.401693,-0.70633 -0.608625,-1.0702 -6.5046976,-11.5532 -10.8737347,-24.12302 -13.5302043,-37.10068 -0.073587,-0.359 -0.1471747,-0.718 -0.2229919,-1.08788 -1.48509907,-7.81334 -1.80476158,-15.54036 -1.77454699,-23.47507 0.001076,-0.50832 0.002153,-1.01663 0.003261,-1.54035 0.0248048,-7.29539 0.15009872,-14.45247 1.65095049,-21.61811 0.099216,-0.48681 0.1984322,-0.97363 0.3006549,-1.4752 C 7.010846,79.390596 17.955618,57.423994 35.114883,39.608476 c 0.315673,-0.329265 0.631346,-0.65853 0.956585,-0.997772 4.566597,-4.738186 9.209559,-9.102663 14.52434,-12.984693 0.574817,-0.428494 1.14963,-0.856993 1.724438,-1.285497 4.089779,-3.014997 8.335858,-5.703025 12.757719,-8.202604 0.353171,-0.200842 0.706342,-0.401684 1.070214,-0.608612 C 77.70164,9.0247435 90.271736,4.6558022 103.24969,1.9993908 c 0.359,-0.073586 0.71801,-0.1471714 1.08789,-0.222987 7.38186,-1.4030247 14.6661,-1.78054266 22.16568,-1.74866154 z"
     fill="#e5e1e5"
     id="path3"
     style="stroke-width:0.49938" />
  <path
     d="m 91.833208,71.998382 c 0.389099,9.99e-4 0.778199,0.002 1.179089,0.003 0.397146,-4.79e-4 0.794292,-9.99e-4 1.203473,-0.0015 0.84129,-3.4e-4 1.682581,4.99e-4 2.523868,0.0025 1.29222,0.0025 2.584354,2.5e-5 3.876572,-0.003 0.81541,3.29e-4 1.63081,9.98e-4 2.44621,0.002 0.3891,-9.99e-4 0.7782,-0.002 1.17909,-0.003 2.72737,0.01198 2.72737,0.01198 3.28416,0.568762 0.0599,1.395205 0.0876,2.77862 0.0946,4.174449 0.004,0.437637 0.008,0.875268 0.0126,1.326157 0.009,0.95343 0.0163,1.906864 0.0229,2.860308 0.0105,1.506336 0.024,3.012622 0.0383,4.518928 0.0349,3.741458 0.0646,7.482951 0.0944,11.224449 0.0254,3.159168 0.0527,6.318315 0.0828,9.477435 0.0133,1.48859 0.0237,2.97717 0.034,4.46578 0.008,0.90723 0.0167,1.81446 0.0253,2.72168 0.003,0.62652 0.003,0.62652 0.006,1.26569 -0.15628,1.85591 -0.15628,1.85591 0.58766,3.40814 1.21279,0.0501 2.41139,0.068 3.62444,0.0646 0.37919,0.001 0.75838,0.002 1.14907,0.002 1.25949,0.002 2.51895,5e-4 3.77845,-10e-4 0.8714,3.4e-4 1.74281,10e-4 2.61421,0.002 1.82873,5e-4 3.65744,-3.4e-4 5.48616,-0.002 2.34948,-0.003 4.69893,-0.001 7.0484,0.002 1.80012,0.002 3.60023,0.001 5.40035,-6e-5 0.86654,-3.3e-4 1.73309,7e-5 2.59964,0.001 1.20896,0.001 2.41788,-5e-4 3.62684,-0.004 0.36165,10e-4 0.7233,0.002 1.09591,0.003 1.65538,0.13701 1.65538,0.13701 3.02792,-0.56705 0.0599,-1.39521 0.0876,-2.77863 0.0946,-4.17446 0.004,-0.43763 0.008,-0.87526 0.0126,-1.32615 0.009,-0.95343 0.0163,-1.90687 0.0229,-2.86031 0.0105,-1.50634 0.024,-3.01262 0.0383,-4.51893 0.0299,-3.1973 0.0559,-6.394637 0.0814,-9.591978 0.0295,-3.703325 0.0606,-7.406631 0.0958,-11.109907 0.0133,-1.488583 0.0237,-2.977166 0.034,-4.465775 0.008,-0.907227 0.0167,-1.814459 0.0253,-2.721686 0.002,-0.417677 0.004,-0.835353 0.006,-1.265683 0.0314,-2.851919 0.0314,-2.851919 0.58766,-3.408141 1.32565,-0.05042 2.63802,-0.06977 3.96387,-0.06632 0.39714,-4.79e-4 0.79429,-9.99e-4 1.20347,-0.0015 0.84129,-3.4e-4 1.68258,4.99e-4 2.52387,0.0025 1.29222,0.0025 2.58435,2.5e-5 3.87657,-0.003 0.8154,3.29e-4 1.6308,9.98e-4 2.4462,0.002 0.58365,-0.0015 0.58365,-0.0015 1.17909,-0.003 2.72737,0.01199 2.72737,0.01199 3.28416,0.568762 0.05,1.425732 0.0671,2.839419 0.0634,4.2654 7.8e-4,0.452783 0.002,0.905565 0.002,1.372065 0.002,1.529342 4.1e-4,3.058654 -0.001,4.587991 6.8e-4,1.091476 0.002,2.182953 0.003,3.274429 0.002,2.973456 0.001,5.946902 -1.9e-4,8.920358 -0.001,3.104222 -9e-5,6.208455 7e-4,9.312675 9.6e-4,5.54855 -5.9e-4,11.09711 -0.003,16.64567 -0.002,5.03574 -0.002,10.07149 4.6e-4,15.10723 0.003,5.84108 0.004,11.68215 0.002,17.52323 -7.8e-4,3.09447 -8.8e-4,6.18893 7.7e-4,9.28339 10e-4,2.90848 4.5e-4,5.81695 -0.002,8.72543 -6.6e-4,1.07079 -4.6e-4,2.14159 6.3e-4,3.21239 0.001,1.45512 -3.3e-4,2.9102 -0.003,4.36532 0.001,0.42956 0.002,0.85912 0.003,1.30169 -0.01,2.90671 -0.01,2.90671 -0.56617,3.46308 -1.32565,0.0504 -2.63803,0.0698 -3.96387,0.0663 -0.39714,4.8e-4 -0.79429,9.9e-4 -1.20347,0.001 -0.84129,3.4e-4 -1.68258,-5e-4 -2.52387,-0.002 -1.29222,-0.002 -2.58435,-3e-5 -3.87657,0.003 -0.8154,-3.3e-4 -1.6308,-0.001 -2.4462,-0.002 -0.58365,0.001 -0.58365,0.001 -1.17909,0.003 -2.72738,-0.012 -2.72738,-0.012 -3.28417,-0.56876 -0.0599,-1.39521 -0.0876,-2.77862 -0.0946,-4.17445 -0.006,-0.65645 -0.006,-0.65645 -0.0126,-1.32616 -0.009,-0.95343 -0.0163,-1.90686 -0.0229,-2.8603 -0.0105,-1.50634 -0.024,-3.01263 -0.0383,-4.51893 -0.035,-3.74146 -0.0646,-7.48295 -0.0944,-11.22445 -0.0254,-3.15917 -0.0528,-6.31831 -0.0828,-9.47744 -0.0133,-1.48858 -0.0237,-2.97716 -0.034,-4.46577 -0.008,-0.90723 -0.0167,-1.81446 -0.0253,-2.72169 -0.002,-0.41767 -0.004,-0.83535 -0.006,-1.26568 0.15627,-1.85591 0.15627,-1.85591 -0.58766,-3.40814 -1.2128,-0.0501 -2.41139,-0.068 -3.62445,-0.0646 -0.37919,-9.9e-4 -0.75838,-0.002 -1.14906,-0.002 -1.2595,-0.002 -2.51896,-5e-4 -3.77846,0.001 -0.8714,-3.4e-4 -1.74281,-0.001 -2.61421,-0.001 -1.82872,-5e-4 -3.65744,3.4e-4 -5.48616,0.002 -2.34947,0.003 -4.69892,9.9e-4 -7.0484,-0.002 -1.80011,-0.002 -3.60022,-0.001 -5.40034,6e-5 -0.86655,3.3e-4 -1.7331,-8e-5 -2.59964,-0.001 -1.20897,-10e-4 -2.41789,5e-4 -3.62685,0.003 -0.36165,-9.9e-4 -0.7233,-0.002 -1.09591,-0.003 -1.65538,-0.13701 -1.65538,-0.13701 -3.02792,0.56705 -0.0599,1.39521 -0.0876,2.77862 -0.0946,4.17445 -0.004,0.43764 -0.008,0.87527 -0.0126,1.32616 -0.009,0.95343 -0.0163,1.90686 -0.0229,2.86031 -0.0105,1.50633 -0.024,3.01262 -0.0383,4.51893 -0.0299,3.1973 -0.0559,6.39463 -0.0814,9.59197 -0.0295,3.70333 -0.0606,7.40663 -0.0958,11.10991 -0.0133,1.48858 -0.0237,2.97717 -0.034,4.46577 -0.008,0.90723 -0.0167,1.81446 -0.0253,2.72169 -0.002,0.41768 -0.004,0.83535 -0.006,1.26568 -0.0314,2.85192 -0.0314,2.85192 -0.58767,3.40814 -1.32564,0.0504 -2.63802,0.0698 -3.96386,0.0663 -0.59572,4.9e-4 -0.59572,4.9e-4 -1.20348,10e-4 -0.84128,3.4e-4 -1.68258,-5e-4 -2.523867,-0.002 -1.29222,-0.002 -2.584354,-3e-5 -3.876571,0.003 -0.815402,-3.3e-4 -1.630804,-0.001 -2.446205,-0.002 -0.3891,9.9e-4 -0.778199,0.002 -1.179089,0.003 -2.727372,-0.012 -2.727372,-0.012 -3.284162,-0.56876 -0.05002,-1.42573 -0.06711,-2.83942 -0.06341,-4.2654 -7.79e-4,-0.45278 -0.0016,-0.90557 -0.0024,-1.37207 -0.002,-1.52934 -4.09e-4,-3.05865 0.0012,-4.58799 -6.76e-4,-1.09147 -0.0016,-2.18295 -0.0027,-3.27443 -0.0023,-2.97345 -0.0014,-5.9469 1.89e-4,-8.92035 0.0013,-3.10423 9.3e-5,-6.20845 -6.92e-4,-9.31267 -9.69e-4,-5.54856 5.88e-4,-11.09711 0.0031,-16.64567 0.0022,-5.03574 0.0018,-10.07149 -4.59e-4,-15.10723 -0.0027,-5.84108 -0.0037,-11.68215 -0.0022,-17.52323 7.8e-4,-3.094474 8.76e-4,-6.188938 -7.68e-4,-9.283403 -0.0014,-2.908477 -4.52e-4,-5.816945 0.0024,-8.725422 6.64e-4,-1.070798 4.66e-4,-2.141595 -6.3e-4,-3.212392 -0.0014,-1.45512 3.33e-4,-2.9102 0.0028,-4.36532 -0.0011,-0.429557 -0.0022,-0.859118 -0.0034,-1.301693 0.01184,-3.517799 0.01184,-3.517799 3.350951,-3.53247 z"
     fill="#fde87d"
     id="path4"
     style="stroke-width:0.49938" />
  <path
     d="m 96.039817,25.126637 c -0.393324,0.290963 -0.786648,0.581927 -1.191891,0.881707 -4.176632,3.127545 -8.041097,6.480091 -11.792112,10.104516 -0.310764,0.299814 -0.621529,0.599629 -0.941711,0.908528 -3.943638,3.825068 -7.727361,7.681937 -11.043522,12.075189 -0.240436,0.315666 -0.480872,0.631333 -0.728594,0.956564 -15.343632,20.254851 -23.443722,43.380869 -26.23818,68.456389 -0.421004,0.0245 -0.842009,0.0489 -1.275772,0.0741 -0.820766,0.056 -0.820766,0.056 -1.658113,0.11314 -0.816903,0.0521 -0.816903,0.0521 -1.65031,0.10534 -1.473573,0.0732 -1.473573,0.0732 -2.407191,1.20551 -0.156141,1.63396 -0.156141,1.63396 -0.132649,3.55804 -9.55e-4,0.35091 -0.0019,0.70182 -0.0029,1.06336 -6.8e-4,0.74216 0.0012,1.48432 0.0053,2.22646 0.0053,1.13771 5.2e-5,2.27502 -0.0063,3.41271 6.6e-4,0.72046 0.0019,1.4409 0.0039,2.16136 0.0011,0.65788 0.0023,1.31577 0.0034,1.99359 -0.03639,1.61405 -0.03639,1.61405 1.128005,2.56319 1.444338,0.2317 1.444338,0.2317 3.058731,0.31211 0.547178,0.0374 1.094355,0.0747 1.658113,0.11314 0.631508,0.0367 0.631508,0.0367 1.275772,0.0741 0.05005,0.39162 0.100102,0.78325 0.151669,1.18674 2.078657,16.09392 5.576583,31.08244 12.832334,45.75439 0.198915,0.40402 0.39783,0.80803 0.602773,1.22429 3.98877,8.0201 8.776996,15.27031 14.378768,22.24627 0.396542,0.49953 0.793085,0.99907 1.201644,1.51373 5.71014,6.97891 12.122295,13.52935 19.380418,18.89622 1.241033,0.9486 2.317134,1.92742 3.388404,3.06062 -16.224174,-1.84644 -33.268687,-14.18504 -44.690055,-25.2391 -0.5242,-0.50639 -1.051812,-1.00926 -1.582035,-1.50934 -4.778637,-4.51052 -8.835318,-9.35728 -12.655292,-14.69958 -0.339773,-0.47205 -0.339773,-0.47205 -0.68641,-0.95364 C 25.247345,173.28486 17.650846,153.07 17.53498,133.67216 c -0.0035,-0.39625 -0.0071,-0.79249 -0.01068,-1.20074 -0.206367,-30.0243 9.109599,-56.967684 30.0752,-78.880479 0.259185,-0.275435 0.51837,-0.550869 0.785409,-0.834648 4.510415,-4.777132 9.359358,-8.8232 14.695517,-12.648443 0.456129,-0.3318 0.456129,-0.3318 0.921472,-0.670302 C 87.494812,22.474797 87.494812,22.474797 96.039817,25.126637 Z"
     fill="#918291"
     id="path5"
     style="stroke-width:0.49938" />
  <path
     d="m 127.84438,193.1347 c 2.1308,0.36182 2.79431,1.21136 4.21356,2.76996 1.27869,1.37455 2.69836,2.55374 4.13163,3.76286 1.14263,1.05621 1.28941,1.58208 1.38757,3.14913 0.0271,1.58062 0.0497,3.16102 0.059,4.74185 0.009,1.01844 0.0305,2.03606 0.0525,3.05428 0.004,0.64243 0.008,1.28487 0.0127,1.94678 0.007,0.58989 0.0146,1.17978 0.0221,1.78755 -0.2347,1.5403 -0.2347,1.5403 -1.0262,2.73046 -1.63615,1.09526 -2.77391,1.0656 -4.73489,1.07263 -0.33724,0.002 -0.67447,0.004 -1.02193,0.006 -0.7106,0.002 -1.42123,-0.002 -2.13178,-0.0107 -1.08764,-0.0107 -2.17365,-9e-5 -3.26124,0.0127 -0.69153,-0.001 -1.38307,-0.004 -2.07459,-0.008 -0.62801,-0.002 -1.25602,-0.004 -1.90305,-0.007 -1.55947,-0.25845 -1.55947,-0.25845 -2.50923,-1.07128 -1.18987,-2.5704 -0.82522,-5.55242 -0.8293,-8.33195 -0.0183,-0.65241 -0.0367,-1.30483 -0.0556,-1.97701 -0.0246,-5.37045 -0.0246,-5.37045 1.71956,-7.44477 0.5218,-0.48713 1.05857,-0.95906 1.61325,-1.40839 0.37337,-0.35341 0.74674,-0.70681 1.13142,-1.07092 0.32702,-0.27487 0.65404,-0.54974 0.99097,-0.83294 3.12039,-2.6426 3.12039,-2.6426 4.21355,-2.8714 z"
     fill="#edeaed"
     id="path6"
     style="stroke-width:0.49938" />
  <path
     d="m 123.47282,37.845062 c 0.33676,-0.0019 0.67351,-0.0038 1.02048,-0.0058 0.71149,-0.0013 1.423,0.0023 2.13444,0.01067 1.0866,0.01068 2.17153,1.11e-4 3.25807,-0.01268 0.69219,0.0013 1.38437,0.0039 2.07655,0.0078 0.62857,0.0022 1.25714,0.0045 1.90475,0.0068 1.6241,0.258465 1.6241,0.258465 2.82355,1.072386 1.6301,2.417452 1.14557,5.480743 1.14142,8.29965 0.0203,0.64823 0.0405,1.29646 0.0614,1.964333 0.0191,5.348397 0.0191,5.348397 -2.03753,7.736392 -0.60486,0.570924 -1.22453,1.126897 -1.86294,1.660029 -0.39526,0.375289 -0.79051,0.750583 -1.19774,1.137243 -0.32574,0.273587 -0.65147,0.547169 -0.98707,0.829041 -0.33346,0.282595 -0.66691,0.565191 -1.01047,0.856346 -0.26394,0.222086 -0.52787,0.444173 -0.7998,0.672986 -0.1648,0.164793 -0.32959,0.329586 -0.49938,0.499374 -1.27968,0.280897 -1.27968,0.280897 -2.99631,0 -1.09542,-0.893615 -2.0227,-1.871364 -2.9807,-2.910411 -1.19351,-1.276109 -2.48516,-2.365858 -3.83707,-3.46831 -1.0734,-0.976925 -1.16977,-1.565402 -1.25285,-3.02233 -0.0186,-1.580628 -0.0349,-3.161125 -0.0395,-4.741859 -0.005,-1.018299 -0.0203,-2.036094 -0.0361,-3.054275 -0.003,-0.642436 -0.005,-1.284873 -0.008,-1.946778 -0.005,-0.589892 -0.009,-1.179785 -0.0141,-1.787552 0.39797,-3.443712 1.88225,-3.79141 5.13869,-3.803093 z"
     fill="#edeaed"
     id="path7"
     style="stroke-width:0.49938" />
  <path
     d="m 209.06121,118.38957 c 1.01832,-0.005 2.03614,-0.0203 3.05434,-0.0361 0.64245,-0.002 1.2849,-0.005 1.94682,-0.008 0.88486,-0.007 0.88486,-0.007 1.7876,-0.0141 1.72588,0.19945 2.41979,0.34229 3.53787,1.67612 0.25847,1.61322 0.25847,1.61322 0.2653,3.58925 0.002,0.34902 0.004,0.69804 0.006,1.05764 0.001,0.73708 -0.002,1.47418 -0.0107,2.21121 -0.0107,1.1282 -1e-4,2.25482 0.0127,3.38297 -10e-4,0.71655 -0.004,1.4331 -0.008,2.14964 -0.002,0.6521 -0.005,1.30419 -0.007,1.97604 -0.25847,1.61321 -0.25847,1.61321 -1.07021,2.57197 -2.32005,1.05528 -4.85208,0.79813 -7.35934,0.78954 -0.99838,-4.8e-4 -1.9967,0.0209 -2.99485,0.0425 -5.38336,0.0109 -5.38336,0.0109 -7.15329,-1.4279 -0.57261,-0.67398 -0.57261,-0.67398 -1.15678,-1.36157 -0.33153,-0.35148 -0.66305,-0.70295 -1.00462,-1.06507 -0.41425,-0.49246 -0.41425,-0.49246 -0.83686,-0.99485 -0.80351,-0.94941 -1.58144,-1.86623 -2.48522,-2.7212 -0.66698,-0.71202 -0.66698,-0.71202 -1.0103,-2.05409 0.46468,-2.23887 1.60539,-3.11504 3.2538,-4.63481 1.27613,-1.19349 2.36591,-2.4851 3.46838,-3.83699 1.84469,-2.02676 5.25233,-1.28508 7.76436,-1.29232 z"
     fill="#edeaed"
     id="path8"
     style="stroke-width:0.49938" />
  <path
     d="m 47.754461,118.44004 c 3.894366,0.0395 7.049374,0.27968 9.994156,3.1039 1.771784,2.08685 3.132952,3.82214 3.619076,6.55903 -0.367264,1.79603 -1.022687,2.42137 -2.375979,3.63997 -1.341716,1.22821 -2.441143,2.30119 -3.490085,3.79797 -1.112955,1.34117 -1.354584,1.43435 -3.190527,1.80145 -0.677791,0.006 -1.355876,-0.004 -2.033261,-0.0283 -0.359882,-0.002 -0.719765,-0.004 -1.090553,-0.006 -0.756819,-0.007 -1.513606,-0.0205 -2.270175,-0.0412 -1.1608,-0.0313 -2.320247,-0.0409 -3.481428,-0.0468 -0.736414,-0.009 -1.472814,-0.0195 -2.209192,-0.0312 -0.347485,-0.004 -0.694971,-0.008 -1.052986,-0.0129 -2.444583,-0.0729 -2.444583,-0.0729 -3.56047,-1.18876 -0.129236,-1.56444 -0.129236,-1.56444 -0.132649,-3.55803 -9.56e-4,-0.35091 -0.0019,-0.70182 -0.0029,-1.06337 -6.8e-4,-0.74215 0.0012,-1.48431 0.0053,-2.22645 0.0053,-1.13771 5.2e-5,-2.27502 -0.0063,-3.41271 6.6e-4,-0.72046 0.0019,-1.44091 0.0039,-2.16136 0.0011,-0.65788 0.0023,-1.31577 0.0034,-1.99359 0.355683,-4.30568 7.852551,-3.09512 11.27066,-3.13206 z"
     fill="#eeecee"
     id="path9"
     style="stroke-width:0.49938" />
</svg>
